<svg width="100" height="100" viewBox="0 0 100 100" fill="none" xmlns="http://www.w3.org/2000/svg">
<circle cx="50" cy="50" r="47.5" fill="white" stroke="#1A4BA5" stroke-width="5"/>
<path d="M33.7938 37.7437C33.3531 37.8469 33.6344 37.8281 33.2687 37.875C31.7031 38.2125 32.8656 38.5125 33.7938 37.7437ZM61.3281 38.3719C61.4406 38.2969 61.8344 37.9125 60.6062 37.5375C60.6812 37.9219 60.3531 37.8844 60.3531 38.1C61.2625 38.925 61.6375 40.3594 62.8 40.6594C63.025 39.6281 61.7687 39.1219 61.3281 38.3719ZM32.9594 37.4438C33.1 38.2781 33.7281 36.5625 33.7375 35.9531C33.4937 36.0938 33.25 36.2344 32.9969 36.3469C33.5875 36.6469 33.0719 36.9656 32.4344 37.4438C31.1406 39.0563 33.6438 36.1875 32.9594 37.4438ZM49 27C35.7438 27 25 37.7438 25 51C25 64.2469 35.7438 75 49 75C62.2562 75 73 64.2469 73 51C73 37.7438 62.2562 27 49 27ZM49.6375 35.0438L49.75 35.0812C49.3 35.6625 52.0938 37.3594 50.0875 37.5C48.2125 38.0344 50.875 37.0125 49.4219 37.1906C50.1906 36.1219 48.8125 36.1031 49.6375 35.0438ZM38.2562 36.5812C37.5812 36.0187 35.4625 37.35 36.2031 37.0312C38.0406 36.3094 36.325 37.1062 36.7563 37.9688C36.3625 38.7844 36.625 37.1625 35.65 38.1281C34.9469 38.2875 33.2219 39.8812 33.4375 39.3937C33.3813 40.1531 31.3844 41.0531 31.1125 42.3187C30.4562 44.0719 30.9531 42.2531 30.8313 41.5687C29.8938 40.3781 28.1875 43.5844 28.6938 44.85C29.5469 43.35 29.4813 44.6906 28.8625 45.3563C29.4906 46.5094 28.2906 48.0094 29.4812 48.8625C30.0062 48.9844 31.0563 47.1 30.5969 49.0594C30.9156 47.3625 31.4781 49.4625 32.3875 48.9938C32.4438 49.8844 32.9969 49.4719 33.1187 50.55C34.6375 50.4375 36.025 53.0063 34.2156 53.4938C34.4875 53.4188 35.0219 53.8969 35.6406 53.5312C36.6906 54.3656 39.4563 54.4688 39.5312 56.5312C37.6281 57.4406 39.0625 59.9344 37.4125 60.825C35.5187 60.5437 36.7656 63.1594 35.9688 62.8594C36.2875 64.7438 34.0563 62.6156 34.9188 63.6562C36.5031 64.6312 34.225 64.4344 34.9375 65.1469C34.1406 64.9781 35.4344 66.6281 35.65 67.2375C36.7937 69.0938 34.6656 66.825 34.0375 66.2063C33.4375 65.0063 32.0219 62.7094 31.6281 60.825C31.4031 58.0875 29.2844 56.25 28.7969 53.5781C28.3094 52.0875 30.1375 49.6969 29.1531 48.8625C28.3 48.1969 28.6469 45.9188 28.1406 44.7188C29.4062 39.2344 33.4281 34.6125 38.2562 31.875C37.7594 32.2406 41.0969 30.9281 40.7125 31.2469C40.6094 31.4812 42.6625 30.3563 43.9 30.1875C43.7688 30.2062 40.6844 31.3125 41.5375 31.1625C40.2156 31.8094 41.4062 31.4438 42.0625 31.1156C40.75 32.0813 39.7375 31.8094 38.2469 32.6625C36.7469 33.0563 37.0562 34.6125 35.9875 35.3906C36.6156 35.5031 38.1906 33.7687 39.1094 33.1594C41.2188 32.1375 38.0406 35.0156 40.0469 33.7781C39.3719 34.4063 39.5125 35.4094 39.1 35.6906C38.8937 35.6344 39.9156 36.1781 38.2562 36.5812ZM41.5375 32.2688C41.3219 32.5594 41.0219 33.1875 40.8438 32.8031C40.6 32.925 40.5063 33.45 40.0469 33.0281C40.3188 32.8313 40.6 32.3625 40.0656 32.6531C40.3094 32.3906 42.4844 31.65 42.3625 31.3687C42.7469 31.125 42.7094 31.0031 42.2687 31.1531C42.0437 31.0781 42.8031 30.4406 43.8156 30.3562C43.9562 30.3562 44.0125 30.45 43.7594 30.4219C42.2313 30.8906 42.8875 30.7594 43.9188 30.4219C43.525 30.6469 43.2531 30.7125 43.1875 30.8156C44.2188 30.4406 43.1312 31.0875 43.3656 31.0406C43.075 31.1906 43.4125 31.2375 42.85 31.4531C42.9531 31.3688 41.9313 32.0625 42.5406 31.8562C41.95 32.4187 41.6875 32.4281 41.5375 32.2688ZM42.4375 33.6094C42.4562 32.7094 43.75 32.1375 43.5906 32.0906C45.1844 31.3406 43.0375 32.1188 44.2938 31.4438C44.7625 31.3969 45.7563 29.8969 47.1344 29.8031C48.6531 29.3438 47.95 29.8312 49.075 29.4L48.85 29.5875C48.6531 29.6156 48.8969 29.9625 48.1844 30.4875C48.1094 31.3031 46.825 30.9281 47.4625 31.8C47.05 31.2094 46.4312 31.7812 47.2094 31.8375C46.375 32.475 44.4344 32.5875 43.5062 33.6469C42.9062 34.5094 42.3531 34.2375 42.4375 33.6094ZM49.1031 36.6094C48.4656 38.1469 47.8469 36.3844 48.9719 36.1031C49.2531 36.2531 49.3656 36.3 49.1031 36.6094ZM46.7031 33.5344C46.5156 32.8406 46.6656 33.2063 47.7812 32.8781C48.55 33.4313 47.0969 33.7969 46.7031 33.5344ZM64.1594 61.05C63.2781 59.5312 65.2281 58.125 65.8844 56.85C65.8 58.3406 65.6125 59.8125 64.1594 61.05ZM67.4781 43.6969C66.5219 43.7719 65.6594 43.9969 64.7969 43.4531C62.8094 41.2781 65.1625 45.9094 65.8187 44.0156C68.1812 44.9156 65.7812 48.7969 64.2906 48.3937C63.4562 46.5938 62.425 44.6156 60.6062 43.7344C62.0031 45.2812 62.6969 47.1844 64.1969 48.5812C64.3 50.5312 66.2781 47.8687 66.1562 49.3781C66.3438 51.975 63.2219 53.5312 63.7656 56.1375C64.9281 58.5094 61.525 58.9406 61.9094 61.0687C60.5406 62.5969 59.0781 64.6594 56.6219 64.3313C56.6219 63.0375 55.9656 61.9406 55.8156 60.6094C54.4844 58.9219 57.2219 57.1125 55.525 55.35C53.5656 54.9094 55.9281 52.2094 53.9125 52.4625C52.7031 51.2531 50.9313 52.425 49.1969 52.4344C47.0219 52.6406 44.7812 49.7625 45.7469 47.7281C44.9781 45.6094 48.1844 44.9906 48.2687 43.125C49.8062 41.8406 51.9906 42 54.0719 41.7C53.9219 43.1906 55.4969 43.2 56.6875 43.6969C57.3531 42.0844 59.425 43.9594 60.8406 42.9375C61.3281 40.5562 59.4625 41.9906 58.3938 41.2313C57.1 39.3375 61.1594 40.2563 60.7375 39.2625C59.1625 39.2531 60.0531 37.3219 58.9375 38.4C59.9406 38.5781 58.7594 39.3656 58.7875 38.4656C57.2687 38.025 58.7313 40.1906 57.9625 40.3969C56.7906 39.9094 57.3438 40.95 57.4656 41.1094C56.9594 42.2063 56.3406 39.4969 54.9062 39.5719C53.4813 38.2688 54.3438 40.1625 55.5813 40.4719C55.3188 40.5469 55.7312 41.625 55.4031 41.1656C54.3812 39.7594 52.4406 38.8219 51.2875 40.5469C51.1656 42.1594 47.8844 42.6187 48.4094 40.7344C47.6406 38.7844 50.7906 40.6781 50.5 39.1219C48.475 37.7812 51.0531 38.2125 51.7375 36.9562C53.2938 37.0031 51.8031 35.6812 52.5344 35.2969C52.4594 36.7312 53.725 36.4594 54.7281 36.1875C54.4844 35.3625 55.3281 35.3906 54.8125 34.7062C57.1375 33.7781 53.0406 35.1375 53.8656 33.1031C52.8625 32.4094 53.4437 34.6313 53.8656 34.8656C53.8937 35.55 53.3125 36.3938 52.5156 34.9594C51.3531 35.7188 51.475 34.1906 51.4 34.35C51.2688 33.7594 52.2812 33.7312 52.2906 32.7C52.2063 32.0437 52.225 31.6969 52.6937 31.6594C52.7312 31.7531 54.6156 31.7812 55.2812 32.5594C53.4625 32.1937 55.0094 32.8594 55.825 33.2344C54.9531 32.55 56.1719 33.2344 55.4594 32.4563C55.7406 32.5125 54.6813 31.3875 55.7688 32.3719C55.1781 31.6687 56.9219 31.875 55.8906 31.35C57.4 31.7719 56.5094 31.3875 55.6188 31.0031C53.1625 29.5406 59.9594 32.9812 57.1844 31.4531C58.9562 31.8375 53.3969 30.0844 55.9281 30.8531C54.9625 30.4312 55.9 30.6656 56.7719 30.9375C55.2062 30.45 52.8625 29.5406 52.9563 29.5031C53.5 29.5406 54.0344 29.6625 54.55 29.8125C56.1531 30.2906 54.0906 29.7 54.5312 29.7094C60.0438 31.125 64.8719 34.8187 67.8063 39.6469C68.4906 40.3687 70.3563 45.1406 69.3812 43.0219C69.8219 44.7094 69.8875 46.5281 70.1219 48.2531C69.6344 47.7094 69.0906 45.7031 68.6219 44.5875C68.425 45.0188 68.2 43.9781 67.4781 43.6969Z" fill="#1A4BA5"/>
</svg>
