<svg width="100" height="100" viewBox="0 0 100 100" fill="none" xmlns="http://www.w3.org/2000/svg">
<circle cx="50" cy="50" r="47.5" fill="white" stroke="#1A4BA5" stroke-width="5"/>
<path d="M31.1252 51.5833H35.2085V65.8749C35.2085 66.4164 35.4236 66.9357 35.8065 67.3186C36.1894 67.7015 36.7087 67.9166 37.2502 67.9166H61.7502C62.2917 67.9166 62.811 67.7015 63.1939 67.3186C63.5767 66.9357 63.7918 66.4164 63.7918 65.8749V51.5833H67.8752C68.2697 51.5836 68.6559 51.4694 68.9868 51.2545C69.3177 51.0395 69.5791 50.7332 69.7392 50.3726C69.9004 50.0121 69.9535 49.6126 69.8918 49.2226C69.8302 48.8326 69.6566 48.4689 69.3921 48.1757L51.0171 27.7591C50.2433 26.8975 48.757 26.8975 47.9832 27.7591L29.6082 48.1757C29.3442 48.469 29.1709 48.8326 29.1092 49.2223C29.0475 49.6121 29.1 50.0114 29.2605 50.3719C29.421 50.7325 29.6826 51.0387 30.0135 51.2537C30.3444 51.4687 30.7306 51.5832 31.1252 51.5833ZM42.6667 46.767C43.5165 45.928 44.6626 45.4575 45.8568 45.4575C47.051 45.4575 48.1971 45.928 49.0469 46.767L49.5043 47.2161L49.9596 46.767C50.8097 45.9279 51.9562 45.4574 53.1507 45.4574C54.3452 45.4574 55.4916 45.9279 56.3418 46.767C56.7636 47.1727 57.0991 47.6594 57.3283 48.1979C57.5575 48.7365 57.6756 49.3157 57.6756 49.9009C57.6756 50.4862 57.5575 51.0654 57.3283 51.6039C57.0991 52.1424 56.7636 52.6291 56.3418 53.0349L49.5043 59.7499L42.6667 53.0349C42.245 52.6291 41.9094 52.1424 41.6802 51.6039C41.4511 51.0654 41.3329 50.4862 41.3329 49.9009C41.3329 49.3157 41.4511 48.7365 41.6802 48.1979C41.9094 47.6594 42.245 47.1727 42.6667 46.767Z" fill="#1A4BA5"/>
</svg>
