<svg width="100" height="100" viewBox="0 0 100 100" fill="none" xmlns="http://www.w3.org/2000/svg">
<circle cx="50" cy="50" r="47.5" fill="white" stroke="#1A4BA5" stroke-width="5"/>
<path d="M74 56.8083C74 58.0333 71.55 58.85 68.6917 59.2583C66.8542 55.7875 63.1792 53.1333 58.8917 51.2958C59.3 50.6833 59.7083 50.275 60.1167 49.6625H61.75C68.0792 49.4583 74 53.3375 74 56.8083ZM38.8833 49.4583H37.25C30.9208 49.4583 25 53.3375 25 56.8083C25 58.0333 27.45 58.85 30.3083 59.2583C32.1458 55.7875 35.8208 53.1333 40.1083 51.2958L38.8833 49.4583ZM49.5 51.5C53.9917 51.5 57.6667 47.825 57.6667 43.3333C57.6667 38.8417 53.9917 35.1667 49.5 35.1667C45.0083 35.1667 41.3333 38.8417 41.3333 43.3333C41.3333 47.825 45.0083 51.5 49.5 51.5ZM49.5 53.5417C41.1292 53.5417 33.1667 58.85 33.1667 63.75C33.1667 67.8333 49.5 67.8333 49.5 67.8333C49.5 67.8333 65.8333 67.8333 65.8333 63.75C65.8333 58.85 57.8708 53.5417 49.5 53.5417ZM61.1375 47.4167H61.75C65.2208 47.4167 67.875 44.7625 67.875 41.2917C67.875 37.8208 65.2208 35.1667 61.75 35.1667C60.7292 35.1667 59.9125 35.3708 59.0958 35.7792C60.7292 37.8208 61.75 40.475 61.75 43.3333C61.75 44.7625 61.5458 46.1917 61.1375 47.4167ZM37.25 47.4167H37.8625C37.4542 46.1917 37.25 44.7625 37.25 43.3333C37.25 40.475 38.2708 37.8208 39.9042 35.7792C39.0875 35.3708 38.2708 35.1667 37.25 35.1667C33.7792 35.1667 31.125 37.8208 31.125 41.2917C31.125 44.7625 33.7792 47.4167 37.25 47.4167Z" fill="#1A4BA5"/>
</svg>
