<svg width="100" height="100" viewBox="0 0 100 100" fill="none" xmlns="http://www.w3.org/2000/svg">
<circle cx="50" cy="50" r="47.5" fill="white" stroke="#1A4BA5" stroke-width="5"/>
<path d="M50.5 68.875C48.3945 68.875 46.2572 68.6198 44.0879 68.1094C43.0033 69.3854 41.8947 70.494 40.7622 71.4351C39.6297 72.3761 38.6727 73.07 37.8911 73.5166C37.1095 73.9632 36.3519 74.3062 35.6182 74.5454C34.8844 74.7847 34.4059 74.9202 34.1826 74.9521C33.9593 74.9841 33.7839 75 33.6562 75C34.4857 73.1816 34.9642 71.1958 35.0918 69.0425C35.2194 66.8892 34.9961 65.0788 34.4219 63.6113C31.806 61.6016 29.7484 59.193 28.249 56.3857C26.7497 53.5785 26 50.5957 26 47.4375C26 44.5345 26.646 41.7591 27.938 39.1113C29.23 36.4635 30.9686 34.1826 33.1538 32.2686C35.339 30.3545 37.9469 28.8312 40.9775 27.6987C44.0081 26.5662 47.1823 26 50.5 26C53.8177 26 56.9919 26.5662 60.0225 27.6987C63.0531 28.8312 65.661 30.3545 67.8462 32.2686C70.0314 34.1826 71.77 36.4635 73.062 39.1113C74.354 41.7591 75 44.5345 75 47.4375C75 50.3405 74.354 53.1159 73.062 55.7637C71.77 58.4115 70.0314 60.6924 67.8462 62.6064C65.661 64.5205 63.0531 66.0438 60.0225 67.1763C56.9919 68.3088 53.8177 68.875 50.5 68.875ZM47.4375 61.2188C47.4375 61.6335 47.5811 61.9924 47.8682 62.2954C48.1553 62.5985 48.5221 62.75 48.9688 62.75H52.0312C52.446 62.75 52.8048 62.5985 53.1079 62.2954C53.411 61.9924 53.5625 61.6335 53.5625 61.2188V58.1562C53.5625 57.7096 53.411 57.3428 53.1079 57.0557C52.8048 56.7686 52.446 56.625 52.0312 56.625H48.9688C48.5221 56.625 48.1553 56.7686 47.8682 57.0557C47.5811 57.3428 47.4375 57.7096 47.4375 58.1562V61.2188ZM50.5 32.125C47.7884 32.125 45.3639 32.7231 43.2266 33.9194C41.0892 35.1157 39.6217 36.6549 38.8242 38.5371L44.375 41.3125C44.375 40.4512 44.9731 39.7254 46.1694 39.1353C47.3657 38.5451 48.8092 38.25 50.5 38.25C52.1908 38.25 53.6343 38.5451 54.8306 39.1353C56.0269 39.7254 56.625 40.4432 56.625 41.2886C56.625 42.134 56.0269 42.8597 54.8306 43.4658C53.6343 44.0719 52.1908 44.375 50.5 44.375C49.6387 44.375 48.9129 44.6701 48.3228 45.2603C47.7326 45.8504 47.4375 46.5762 47.4375 47.4375V52.0312C47.4375 52.446 47.5811 52.8048 47.8682 53.1079C48.1553 53.411 48.5221 53.5625 48.9688 53.5625H52.0312C52.446 53.5625 52.8048 53.411 53.1079 53.1079C53.411 52.8048 53.5625 52.446 53.5625 52.0312V50.165C56.2103 49.6546 58.4035 48.578 60.1421 46.9351C61.8807 45.2922 62.75 43.418 62.75 41.3125C62.75 38.7604 61.5537 36.5911 59.1611 34.8047C56.7686 33.0182 53.8815 32.125 50.5 32.125Z" fill="#1A4BA5"/>
</svg>
